<mxfile host="app.diagrams.net" agent="Mozilla/5.0 (Windows NT 10.0; Win64; x64) AppleWebKit/537.36 (KHTML, like Gecko) Chrome/131.0.0.0 Safari/537.36 Edg/131.0.0.0" version="25.0.1">
  <diagram id="kgpKYQtTHZ0yAKxKKP6v" name="Page-1">
    <mxGraphModel dx="1186" dy="567" grid="1" gridSize="10" guides="1" tooltips="1" connect="1" arrows="1" fold="1" page="1" pageScale="1" pageWidth="850" pageHeight="1100" math="0" shadow="0">
      <root>
        <mxCell id="0" />
        <mxCell id="1" parent="0" />
        <mxCell id="78WzuV0Xj0HpfG79zMcz-18" style="edgeStyle=orthogonalEdgeStyle;rounded=0;orthogonalLoop=1;jettySize=auto;html=1;exitX=0;exitY=0.5;exitDx=0;exitDy=0;entryX=1;entryY=0.5;entryDx=0;entryDy=0;" edge="1" parent="1" source="3nuBFxr9cyL0pnOWT2aG-9" target="78WzuV0Xj0HpfG79zMcz-1">
          <mxGeometry relative="1" as="geometry" />
        </mxCell>
        <mxCell id="78WzuV0Xj0HpfG79zMcz-19" style="edgeStyle=orthogonalEdgeStyle;rounded=0;orthogonalLoop=1;jettySize=auto;html=1;exitX=1;exitY=0.5;exitDx=0;exitDy=0;entryX=0;entryY=0.5;entryDx=0;entryDy=0;" edge="1" parent="1" source="3nuBFxr9cyL0pnOWT2aG-9" target="78WzuV0Xj0HpfG79zMcz-2">
          <mxGeometry relative="1" as="geometry" />
        </mxCell>
        <mxCell id="3nuBFxr9cyL0pnOWT2aG-9" value="reservation_available" style="rounded=0;whiteSpace=wrap;html=1;" parent="1" vertex="1">
          <mxGeometry x="250" y="130" width="130" height="40" as="geometry" />
        </mxCell>
        <mxCell id="78WzuV0Xj0HpfG79zMcz-21" style="edgeStyle=orthogonalEdgeStyle;rounded=0;orthogonalLoop=1;jettySize=auto;html=1;exitX=1;exitY=0.5;exitDx=0;exitDy=0;entryX=0;entryY=0.5;entryDx=0;entryDy=0;" edge="1" parent="1" source="78WzuV0Xj0HpfG79zMcz-1" target="78WzuV0Xj0HpfG79zMcz-3">
          <mxGeometry relative="1" as="geometry" />
        </mxCell>
        <mxCell id="78WzuV0Xj0HpfG79zMcz-1" value="reservation_new_view" style="rounded=0;whiteSpace=wrap;html=1;" vertex="1" parent="1">
          <mxGeometry x="70" y="130" width="130" height="40" as="geometry" />
        </mxCell>
        <mxCell id="78WzuV0Xj0HpfG79zMcz-20" style="edgeStyle=orthogonalEdgeStyle;rounded=0;orthogonalLoop=1;jettySize=auto;html=1;exitX=0;exitY=0.5;exitDx=0;exitDy=0;" edge="1" parent="1" source="78WzuV0Xj0HpfG79zMcz-2">
          <mxGeometry relative="1" as="geometry">
            <mxPoint x="380" y="150" as="targetPoint" />
          </mxGeometry>
        </mxCell>
        <mxCell id="78WzuV0Xj0HpfG79zMcz-49" style="edgeStyle=orthogonalEdgeStyle;rounded=0;orthogonalLoop=1;jettySize=auto;html=1;exitX=1;exitY=0.5;exitDx=0;exitDy=0;entryX=0;entryY=0.5;entryDx=0;entryDy=0;" edge="1" parent="1" source="78WzuV0Xj0HpfG79zMcz-2" target="78WzuV0Xj0HpfG79zMcz-41">
          <mxGeometry relative="1" as="geometry" />
        </mxCell>
        <mxCell id="78WzuV0Xj0HpfG79zMcz-2" value="reservation_available_service" style="rounded=0;whiteSpace=wrap;html=1;" vertex="1" parent="1">
          <mxGeometry x="420" y="130" width="180" height="40" as="geometry" />
        </mxCell>
        <mxCell id="78WzuV0Xj0HpfG79zMcz-22" style="edgeStyle=orthogonalEdgeStyle;rounded=0;orthogonalLoop=1;jettySize=auto;html=1;exitX=1;exitY=0.5;exitDx=0;exitDy=0;entryX=0;entryY=0.5;entryDx=0;entryDy=0;" edge="1" parent="1" source="78WzuV0Xj0HpfG79zMcz-3" target="78WzuV0Xj0HpfG79zMcz-5">
          <mxGeometry relative="1" as="geometry" />
        </mxCell>
        <mxCell id="78WzuV0Xj0HpfG79zMcz-3" value="reservation_new" style="rounded=0;whiteSpace=wrap;html=1;" vertex="1" parent="1">
          <mxGeometry x="250" y="220" width="130" height="40" as="geometry" />
        </mxCell>
        <mxCell id="78WzuV0Xj0HpfG79zMcz-23" style="edgeStyle=orthogonalEdgeStyle;rounded=0;orthogonalLoop=1;jettySize=auto;html=1;exitX=0;exitY=0.5;exitDx=0;exitDy=0;" edge="1" parent="1" source="78WzuV0Xj0HpfG79zMcz-5">
          <mxGeometry relative="1" as="geometry">
            <mxPoint x="380" y="240" as="targetPoint" />
          </mxGeometry>
        </mxCell>
        <mxCell id="78WzuV0Xj0HpfG79zMcz-47" style="edgeStyle=orthogonalEdgeStyle;rounded=0;orthogonalLoop=1;jettySize=auto;html=1;exitX=1;exitY=0.5;exitDx=0;exitDy=0;entryX=0;entryY=0.5;entryDx=0;entryDy=0;" edge="1" parent="1" source="78WzuV0Xj0HpfG79zMcz-5" target="78WzuV0Xj0HpfG79zMcz-41">
          <mxGeometry relative="1" as="geometry" />
        </mxCell>
        <mxCell id="78WzuV0Xj0HpfG79zMcz-5" value="reservation_new_service" style="rounded=0;whiteSpace=wrap;html=1;" vertex="1" parent="1">
          <mxGeometry x="420" y="220" width="180" height="40" as="geometry" />
        </mxCell>
        <mxCell id="78WzuV0Xj0HpfG79zMcz-28" style="edgeStyle=orthogonalEdgeStyle;rounded=0;orthogonalLoop=1;jettySize=auto;html=1;exitX=1;exitY=0.5;exitDx=0;exitDy=0;entryX=0;entryY=0.5;entryDx=0;entryDy=0;" edge="1" parent="1" source="78WzuV0Xj0HpfG79zMcz-6" target="78WzuV0Xj0HpfG79zMcz-9">
          <mxGeometry relative="1" as="geometry" />
        </mxCell>
        <mxCell id="78WzuV0Xj0HpfG79zMcz-30" style="edgeStyle=orthogonalEdgeStyle;rounded=0;orthogonalLoop=1;jettySize=auto;html=1;exitX=1;exitY=0.5;exitDx=0;exitDy=0;entryX=0;entryY=0.5;entryDx=0;entryDy=0;" edge="1" parent="1" source="78WzuV0Xj0HpfG79zMcz-6" target="78WzuV0Xj0HpfG79zMcz-11">
          <mxGeometry relative="1" as="geometry" />
        </mxCell>
        <mxCell id="78WzuV0Xj0HpfG79zMcz-31" style="edgeStyle=orthogonalEdgeStyle;rounded=0;orthogonalLoop=1;jettySize=auto;html=1;exitX=1;exitY=0.5;exitDx=0;exitDy=0;entryX=0;entryY=0.5;entryDx=0;entryDy=0;" edge="1" parent="1" source="78WzuV0Xj0HpfG79zMcz-6" target="78WzuV0Xj0HpfG79zMcz-13">
          <mxGeometry relative="1" as="geometry" />
        </mxCell>
        <mxCell id="78WzuV0Xj0HpfG79zMcz-32" style="edgeStyle=orthogonalEdgeStyle;rounded=0;orthogonalLoop=1;jettySize=auto;html=1;exitX=1;exitY=0.5;exitDx=0;exitDy=0;entryX=0;entryY=0.5;entryDx=0;entryDy=0;" edge="1" parent="1" source="78WzuV0Xj0HpfG79zMcz-6" target="78WzuV0Xj0HpfG79zMcz-15">
          <mxGeometry relative="1" as="geometry" />
        </mxCell>
        <mxCell id="78WzuV0Xj0HpfG79zMcz-6" value="reservation_list_view" style="rounded=0;whiteSpace=wrap;html=1;" vertex="1" parent="1">
          <mxGeometry x="70" y="340" width="130" height="40" as="geometry" />
        </mxCell>
        <mxCell id="78WzuV0Xj0HpfG79zMcz-24" style="edgeStyle=orthogonalEdgeStyle;rounded=0;orthogonalLoop=1;jettySize=auto;html=1;exitX=0;exitY=0.5;exitDx=0;exitDy=0;entryX=1;entryY=0.5;entryDx=0;entryDy=0;" edge="1" parent="1" source="78WzuV0Xj0HpfG79zMcz-7" target="78WzuV0Xj0HpfG79zMcz-6">
          <mxGeometry relative="1" as="geometry" />
        </mxCell>
        <mxCell id="78WzuV0Xj0HpfG79zMcz-25" style="edgeStyle=orthogonalEdgeStyle;rounded=0;orthogonalLoop=1;jettySize=auto;html=1;exitX=1;exitY=0.5;exitDx=0;exitDy=0;entryX=1;entryY=0.5;entryDx=0;entryDy=0;" edge="1" parent="1" source="78WzuV0Xj0HpfG79zMcz-7" target="78WzuV0Xj0HpfG79zMcz-7">
          <mxGeometry relative="1" as="geometry" />
        </mxCell>
        <mxCell id="78WzuV0Xj0HpfG79zMcz-26" style="edgeStyle=orthogonalEdgeStyle;rounded=0;orthogonalLoop=1;jettySize=auto;html=1;exitX=1;exitY=0.5;exitDx=0;exitDy=0;entryX=0;entryY=0.5;entryDx=0;entryDy=0;" edge="1" parent="1" source="78WzuV0Xj0HpfG79zMcz-7" target="78WzuV0Xj0HpfG79zMcz-8">
          <mxGeometry relative="1" as="geometry" />
        </mxCell>
        <mxCell id="78WzuV0Xj0HpfG79zMcz-7" value="reservation_list" style="rounded=0;whiteSpace=wrap;html=1;" vertex="1" parent="1">
          <mxGeometry x="250" y="340" width="130" height="40" as="geometry" />
        </mxCell>
        <mxCell id="78WzuV0Xj0HpfG79zMcz-27" style="edgeStyle=orthogonalEdgeStyle;rounded=0;orthogonalLoop=1;jettySize=auto;html=1;exitX=0;exitY=0.5;exitDx=0;exitDy=0;" edge="1" parent="1" source="78WzuV0Xj0HpfG79zMcz-8">
          <mxGeometry relative="1" as="geometry">
            <mxPoint x="380" y="360" as="targetPoint" />
          </mxGeometry>
        </mxCell>
        <mxCell id="78WzuV0Xj0HpfG79zMcz-46" style="edgeStyle=orthogonalEdgeStyle;rounded=0;orthogonalLoop=1;jettySize=auto;html=1;exitX=1;exitY=0.5;exitDx=0;exitDy=0;" edge="1" parent="1" source="78WzuV0Xj0HpfG79zMcz-8">
          <mxGeometry relative="1" as="geometry">
            <mxPoint x="700" y="360" as="targetPoint" />
          </mxGeometry>
        </mxCell>
        <mxCell id="78WzuV0Xj0HpfG79zMcz-8" value="reservation_list_service" style="rounded=0;whiteSpace=wrap;html=1;" vertex="1" parent="1">
          <mxGeometry x="420" y="340" width="180" height="40" as="geometry" />
        </mxCell>
        <mxCell id="78WzuV0Xj0HpfG79zMcz-29" style="edgeStyle=orthogonalEdgeStyle;rounded=0;orthogonalLoop=1;jettySize=auto;html=1;exitX=1;exitY=0.5;exitDx=0;exitDy=0;entryX=0;entryY=0.5;entryDx=0;entryDy=0;" edge="1" parent="1" source="78WzuV0Xj0HpfG79zMcz-9" target="78WzuV0Xj0HpfG79zMcz-10">
          <mxGeometry relative="1" as="geometry" />
        </mxCell>
        <mxCell id="78WzuV0Xj0HpfG79zMcz-9" value="reservation_modify" style="rounded=0;whiteSpace=wrap;html=1;" vertex="1" parent="1">
          <mxGeometry x="250" y="430" width="130" height="40" as="geometry" />
        </mxCell>
        <mxCell id="78WzuV0Xj0HpfG79zMcz-33" style="edgeStyle=orthogonalEdgeStyle;rounded=0;orthogonalLoop=1;jettySize=auto;html=1;exitX=0;exitY=0.5;exitDx=0;exitDy=0;entryX=1;entryY=0.5;entryDx=0;entryDy=0;" edge="1" parent="1" source="78WzuV0Xj0HpfG79zMcz-10" target="78WzuV0Xj0HpfG79zMcz-9">
          <mxGeometry relative="1" as="geometry" />
        </mxCell>
        <mxCell id="78WzuV0Xj0HpfG79zMcz-45" style="edgeStyle=orthogonalEdgeStyle;rounded=0;orthogonalLoop=1;jettySize=auto;html=1;exitX=1;exitY=0.5;exitDx=0;exitDy=0;entryX=0;entryY=0.5;entryDx=0;entryDy=0;" edge="1" parent="1" source="78WzuV0Xj0HpfG79zMcz-10" target="78WzuV0Xj0HpfG79zMcz-41">
          <mxGeometry relative="1" as="geometry" />
        </mxCell>
        <mxCell id="78WzuV0Xj0HpfG79zMcz-10" value="reservation_modify_service" style="rounded=0;whiteSpace=wrap;html=1;" vertex="1" parent="1">
          <mxGeometry x="420" y="430" width="180" height="40" as="geometry" />
        </mxCell>
        <mxCell id="78WzuV0Xj0HpfG79zMcz-34" style="edgeStyle=orthogonalEdgeStyle;rounded=0;orthogonalLoop=1;jettySize=auto;html=1;exitX=1;exitY=0.5;exitDx=0;exitDy=0;entryX=0;entryY=0.5;entryDx=0;entryDy=0;" edge="1" parent="1" source="78WzuV0Xj0HpfG79zMcz-11" target="78WzuV0Xj0HpfG79zMcz-12">
          <mxGeometry relative="1" as="geometry" />
        </mxCell>
        <mxCell id="78WzuV0Xj0HpfG79zMcz-11" value="reservation_delete" style="rounded=0;whiteSpace=wrap;html=1;" vertex="1" parent="1">
          <mxGeometry x="250" y="520" width="130" height="40" as="geometry" />
        </mxCell>
        <mxCell id="78WzuV0Xj0HpfG79zMcz-40" style="edgeStyle=orthogonalEdgeStyle;rounded=0;orthogonalLoop=1;jettySize=auto;html=1;exitX=0;exitY=0.5;exitDx=0;exitDy=0;entryX=1;entryY=0.5;entryDx=0;entryDy=0;" edge="1" parent="1" source="78WzuV0Xj0HpfG79zMcz-12" target="78WzuV0Xj0HpfG79zMcz-11">
          <mxGeometry relative="1" as="geometry" />
        </mxCell>
        <mxCell id="78WzuV0Xj0HpfG79zMcz-44" style="edgeStyle=orthogonalEdgeStyle;rounded=0;orthogonalLoop=1;jettySize=auto;html=1;exitX=1;exitY=0.5;exitDx=0;exitDy=0;entryX=0;entryY=0.5;entryDx=0;entryDy=0;" edge="1" parent="1" source="78WzuV0Xj0HpfG79zMcz-12" target="78WzuV0Xj0HpfG79zMcz-41">
          <mxGeometry relative="1" as="geometry" />
        </mxCell>
        <mxCell id="78WzuV0Xj0HpfG79zMcz-12" value="reservation_delete_service" style="rounded=0;whiteSpace=wrap;html=1;" vertex="1" parent="1">
          <mxGeometry x="420" y="520" width="180" height="40" as="geometry" />
        </mxCell>
        <mxCell id="78WzuV0Xj0HpfG79zMcz-35" style="edgeStyle=orthogonalEdgeStyle;rounded=0;orthogonalLoop=1;jettySize=auto;html=1;exitX=1;exitY=0.5;exitDx=0;exitDy=0;entryX=0;entryY=0.5;entryDx=0;entryDy=0;" edge="1" parent="1" source="78WzuV0Xj0HpfG79zMcz-13" target="78WzuV0Xj0HpfG79zMcz-14">
          <mxGeometry relative="1" as="geometry" />
        </mxCell>
        <mxCell id="78WzuV0Xj0HpfG79zMcz-13" value="reservation_confirm" style="rounded=0;whiteSpace=wrap;html=1;" vertex="1" parent="1">
          <mxGeometry x="250" y="610" width="130" height="40" as="geometry" />
        </mxCell>
        <mxCell id="78WzuV0Xj0HpfG79zMcz-39" style="edgeStyle=orthogonalEdgeStyle;rounded=0;orthogonalLoop=1;jettySize=auto;html=1;exitX=0;exitY=0.5;exitDx=0;exitDy=0;" edge="1" parent="1" source="78WzuV0Xj0HpfG79zMcz-14">
          <mxGeometry relative="1" as="geometry">
            <mxPoint x="380" y="630" as="targetPoint" />
          </mxGeometry>
        </mxCell>
        <mxCell id="78WzuV0Xj0HpfG79zMcz-43" style="edgeStyle=orthogonalEdgeStyle;rounded=0;orthogonalLoop=1;jettySize=auto;html=1;exitX=1;exitY=0.5;exitDx=0;exitDy=0;entryX=0;entryY=0.5;entryDx=0;entryDy=0;" edge="1" parent="1" source="78WzuV0Xj0HpfG79zMcz-14" target="78WzuV0Xj0HpfG79zMcz-41">
          <mxGeometry relative="1" as="geometry" />
        </mxCell>
        <mxCell id="78WzuV0Xj0HpfG79zMcz-14" value="reservation_confirm_service" style="rounded=0;whiteSpace=wrap;html=1;" vertex="1" parent="1">
          <mxGeometry x="420" y="610" width="180" height="40" as="geometry" />
        </mxCell>
        <mxCell id="78WzuV0Xj0HpfG79zMcz-37" style="edgeStyle=orthogonalEdgeStyle;rounded=0;orthogonalLoop=1;jettySize=auto;html=1;exitX=1;exitY=0.5;exitDx=0;exitDy=0;entryX=0;entryY=0.5;entryDx=0;entryDy=0;" edge="1" parent="1" source="78WzuV0Xj0HpfG79zMcz-15" target="78WzuV0Xj0HpfG79zMcz-16">
          <mxGeometry relative="1" as="geometry" />
        </mxCell>
        <mxCell id="78WzuV0Xj0HpfG79zMcz-15" value="reservation_add" style="rounded=0;whiteSpace=wrap;html=1;" vertex="1" parent="1">
          <mxGeometry x="250" y="698" width="130" height="40" as="geometry" />
        </mxCell>
        <mxCell id="78WzuV0Xj0HpfG79zMcz-38" style="edgeStyle=orthogonalEdgeStyle;rounded=0;orthogonalLoop=1;jettySize=auto;html=1;exitX=0;exitY=0.5;exitDx=0;exitDy=0;entryX=1;entryY=0.5;entryDx=0;entryDy=0;" edge="1" parent="1" source="78WzuV0Xj0HpfG79zMcz-16" target="78WzuV0Xj0HpfG79zMcz-15">
          <mxGeometry relative="1" as="geometry" />
        </mxCell>
        <mxCell id="78WzuV0Xj0HpfG79zMcz-42" style="edgeStyle=orthogonalEdgeStyle;rounded=0;orthogonalLoop=1;jettySize=auto;html=1;exitX=1;exitY=0.5;exitDx=0;exitDy=0;entryX=0;entryY=0.5;entryDx=0;entryDy=0;" edge="1" parent="1" source="78WzuV0Xj0HpfG79zMcz-16" target="78WzuV0Xj0HpfG79zMcz-41">
          <mxGeometry relative="1" as="geometry" />
        </mxCell>
        <mxCell id="78WzuV0Xj0HpfG79zMcz-16" value="reservation_add_service" style="rounded=0;whiteSpace=wrap;html=1;" vertex="1" parent="1">
          <mxGeometry x="421" y="698" width="180" height="40" as="geometry" />
        </mxCell>
        <mxCell id="78WzuV0Xj0HpfG79zMcz-50" style="edgeStyle=orthogonalEdgeStyle;rounded=0;orthogonalLoop=1;jettySize=auto;html=1;exitX=0;exitY=0.5;exitDx=0;exitDy=0;entryX=1;entryY=0.5;entryDx=0;entryDy=0;" edge="1" parent="1" source="78WzuV0Xj0HpfG79zMcz-41" target="78WzuV0Xj0HpfG79zMcz-8">
          <mxGeometry relative="1" as="geometry" />
        </mxCell>
        <mxCell id="78WzuV0Xj0HpfG79zMcz-51" style="edgeStyle=orthogonalEdgeStyle;rounded=0;orthogonalLoop=1;jettySize=auto;html=1;exitX=0;exitY=0.5;exitDx=0;exitDy=0;entryX=1;entryY=0.5;entryDx=0;entryDy=0;" edge="1" parent="1" source="78WzuV0Xj0HpfG79zMcz-41" target="78WzuV0Xj0HpfG79zMcz-5">
          <mxGeometry relative="1" as="geometry" />
        </mxCell>
        <mxCell id="78WzuV0Xj0HpfG79zMcz-52" style="edgeStyle=orthogonalEdgeStyle;rounded=0;orthogonalLoop=1;jettySize=auto;html=1;exitX=0;exitY=0.5;exitDx=0;exitDy=0;entryX=1;entryY=0.5;entryDx=0;entryDy=0;" edge="1" parent="1" source="78WzuV0Xj0HpfG79zMcz-41" target="78WzuV0Xj0HpfG79zMcz-2">
          <mxGeometry relative="1" as="geometry" />
        </mxCell>
        <mxCell id="78WzuV0Xj0HpfG79zMcz-53" style="edgeStyle=orthogonalEdgeStyle;rounded=0;orthogonalLoop=1;jettySize=auto;html=1;exitX=0;exitY=0.5;exitDx=0;exitDy=0;entryX=1;entryY=0.5;entryDx=0;entryDy=0;" edge="1" parent="1" source="78WzuV0Xj0HpfG79zMcz-41" target="78WzuV0Xj0HpfG79zMcz-10">
          <mxGeometry relative="1" as="geometry" />
        </mxCell>
        <mxCell id="78WzuV0Xj0HpfG79zMcz-54" style="edgeStyle=orthogonalEdgeStyle;rounded=0;orthogonalLoop=1;jettySize=auto;html=1;exitX=0;exitY=0.5;exitDx=0;exitDy=0;entryX=1;entryY=0.5;entryDx=0;entryDy=0;" edge="1" parent="1" source="78WzuV0Xj0HpfG79zMcz-41" target="78WzuV0Xj0HpfG79zMcz-12">
          <mxGeometry relative="1" as="geometry" />
        </mxCell>
        <mxCell id="78WzuV0Xj0HpfG79zMcz-55" style="edgeStyle=orthogonalEdgeStyle;rounded=0;orthogonalLoop=1;jettySize=auto;html=1;exitX=0;exitY=0.5;exitDx=0;exitDy=0;entryX=1;entryY=0.5;entryDx=0;entryDy=0;" edge="1" parent="1" source="78WzuV0Xj0HpfG79zMcz-41" target="78WzuV0Xj0HpfG79zMcz-14">
          <mxGeometry relative="1" as="geometry" />
        </mxCell>
        <mxCell id="78WzuV0Xj0HpfG79zMcz-56" style="edgeStyle=orthogonalEdgeStyle;rounded=0;orthogonalLoop=1;jettySize=auto;html=1;exitX=0;exitY=0.5;exitDx=0;exitDy=0;entryX=1;entryY=0.5;entryDx=0;entryDy=0;" edge="1" parent="1" source="78WzuV0Xj0HpfG79zMcz-41" target="78WzuV0Xj0HpfG79zMcz-16">
          <mxGeometry relative="1" as="geometry" />
        </mxCell>
        <mxCell id="78WzuV0Xj0HpfG79zMcz-58" style="edgeStyle=orthogonalEdgeStyle;rounded=0;orthogonalLoop=1;jettySize=auto;html=1;exitX=0.5;exitY=1;exitDx=0;exitDy=0;entryX=0.5;entryY=0;entryDx=0;entryDy=0;" edge="1" parent="1" source="78WzuV0Xj0HpfG79zMcz-41" target="78WzuV0Xj0HpfG79zMcz-57">
          <mxGeometry relative="1" as="geometry" />
        </mxCell>
        <mxCell id="78WzuV0Xj0HpfG79zMcz-41" value="Reservations" style="rounded=1;whiteSpace=wrap;html=1;" vertex="1" parent="1">
          <mxGeometry x="700" y="330" width="120" height="60" as="geometry" />
        </mxCell>
        <mxCell id="78WzuV0Xj0HpfG79zMcz-59" style="edgeStyle=orthogonalEdgeStyle;rounded=0;orthogonalLoop=1;jettySize=auto;html=1;exitX=0.5;exitY=0;exitDx=0;exitDy=0;entryX=0.5;entryY=1;entryDx=0;entryDy=0;" edge="1" parent="1" source="78WzuV0Xj0HpfG79zMcz-57" target="78WzuV0Xj0HpfG79zMcz-41">
          <mxGeometry relative="1" as="geometry" />
        </mxCell>
        <mxCell id="78WzuV0Xj0HpfG79zMcz-57" value="Users" style="rounded=1;whiteSpace=wrap;html=1;" vertex="1" parent="1">
          <mxGeometry x="700" y="460" width="120" height="60" as="geometry" />
        </mxCell>
      </root>
    </mxGraphModel>
  </diagram>
</mxfile>
